<svg width="34" height="40" viewBox="0 0 34 40" fill="none" xmlns="http://www.w3.org/2000/svg">
<path d="M19.0476 20C19.0476 21.2257 18.8013 22.4393 18.3227 23.5717C17.844 24.7041 17.1425 25.733 16.2582 26.5997C15.3738 27.4663 14.3239 28.1538 13.1684 28.6229C12.0129 29.0919 10.7745 29.3333 9.52381 29.3333C8.27312 29.3333 7.03469 29.0919 5.8792 28.6229C4.72372 28.1538 3.67383 27.4663 2.78946 26.5997C1.90509 25.733 1.20357 24.7041 0.724957 23.5717C0.24634 22.4393 -1.09338e-07 21.2257 0 20H4.7619C4.7619 20.6128 4.88508 21.2197 5.12438 21.7859C5.36369 22.352 5.71445 22.8665 6.15663 23.2998C6.59882 23.7332 7.12377 24.0769 7.70151 24.3114C8.27925 24.546 8.89847 24.6667 9.52381 24.6667C10.1492 24.6667 10.7684 24.546 11.3461 24.3114C11.9239 24.0769 12.4488 23.7332 12.891 23.2998C13.3332 22.8665 13.6839 22.352 13.9232 21.7859C14.1625 21.2197 14.2857 20.6128 14.2857 20H19.0476Z" fill="#333333"/>
<path d="M14.2857 15.3333C14.2857 14.1077 14.5321 12.894 15.0107 11.7616C15.4893 10.6292 16.1908 9.60035 17.0752 8.73367C17.9595 7.86699 19.0094 7.1795 20.1649 6.71046C21.3204 6.24141 22.5588 6 23.8095 6C25.0602 6 26.2986 6.24141 27.4541 6.71046C28.6096 7.1795 29.6595 7.86699 30.5439 8.73367C31.4282 9.60035 32.1298 10.6293 32.6084 11.7616C33.087 12.894 33.3333 14.1077 33.3333 15.3333L28.5714 15.3333C28.5714 14.7205 28.4483 14.1137 28.209 13.5475C27.9696 12.9813 27.6189 12.4668 27.1767 12.0335C26.7345 11.6002 26.2096 11.2564 25.6318 11.0219C25.0541 10.7874 24.4349 10.6667 23.8095 10.6667C23.1842 10.6667 22.565 10.7874 21.9872 11.0219C21.4095 11.2564 20.8845 11.6002 20.4423 12.0335C20.0002 12.4668 19.6494 12.9813 19.4101 13.5475C19.1708 14.1137 19.0476 14.7205 19.0476 15.3333H14.2857Z" fill="#333333"/>
<path d="M14.2857 20H19.0476V34H14.2857V20Z" fill="#333333"/>
<path d="M0 -1H4.7619V20H0L0 -1Z" fill="#333333"/>
<path d="M28.5714 15.3333L33.3333 15.3333V44H28.5714V15.3333Z" fill="#333333"/>
</svg>
